<svg width="37" height="83" viewBox="0 0 37 83" fill="none" xmlns="http://www.w3.org/2000/svg">
<path d="M35.7047 1.1804e-06L35.9245 25.1924C28.3856 26.7406 22.8196 33.5278 22.8891 41.5016C22.9587 49.4751 28.6424 56.164 36.2072 57.5804L36.427 82.773C36.427 82.773 36.4271 82.773 36.427 82.773L36.2072 57.5804C28.6424 56.164 22.9587 49.4751 22.8891 41.5016C22.8196 33.5278 28.3856 26.7406 35.9245 25.1924L35.7047 1.1804e-06C35.7047 -2.90857e-06 35.7047 5.26921e-06 35.7047 1.1804e-06Z" fill="#76DECC"/>
<path d="M0.361201 41.6982C0.53766 61.9184 15.489 78.2971 34.4586 80.6622L34.2703 59.0913C26.5661 56.9223 21.0116 49.818 20.9392 41.5187C20.8668 33.219 26.2963 26.0187 33.9616 23.7156L33.7733 2.1448C14.848 4.84067 0.184738 21.4776 0.361201 41.6982Z" fill="#76DECC"/>
</svg>
